<svg width="100" height="100" viewBox="0 0 100 100" fill="none" xmlns="http://www.w3.org/2000/svg">
<path d="M85.4546 0C77.4361 0 70.9091 6.90355 70.9091 15.3846C70.9091 15.4748 70.9091 15.5649 70.9091 15.655L34.9006 36.9141C32.6065 35.4117 29.9858 34.6154 27.2727 34.6154C19.2543 34.6154 12.7273 41.5189 12.7273 50C12.7273 58.4811 19.2543 65.3846 27.2727 65.3846C29.9858 65.3846 32.6065 64.5883 34.9006 63.0859L70.9091 84.345C70.9091 84.4351 70.9091 84.5252 70.9091 84.6154C70.9091 85.2689 70.9588 85.9075 71.0298 86.5385C71.0511 86.7112 71.0866 86.884 71.108 87.0568C71.1861 87.5451 71.2855 88.0258 71.3992 88.4991C71.4347 88.6569 71.4702 88.8146 71.5128 88.9724C71.6761 89.5658 71.875 90.1442 72.1023 90.7001C72.1662 90.8579 72.2443 91.0081 72.3082 91.1584C72.4929 91.5715 72.6989 91.9697 72.9119 92.3678C72.9759 92.473 73.0185 92.5931 73.0824 92.7058C73.1108 92.7584 73.1534 92.796 73.1818 92.841C75.7671 97.1379 80.2983 100 85.4546 100C93.473 100 100 93.0965 100 84.6154C100 76.1343 93.473 69.2308 85.4546 69.2308C82.8125 69.2308 80.2628 69.982 78.0043 71.4168L41.8182 50.0526V49.9474L78.0043 28.5832C78.1108 28.6508 78.2315 28.7034 78.3381 28.771C78.6719 28.9663 79.0057 29.1466 79.3537 29.3194C79.5881 29.4321 79.8224 29.5448 80.0639 29.6499C80.3835 29.7852 80.7102 29.9053 81.044 30.018C81.2997 30.1007 81.5554 30.1908 81.8182 30.2659C82.1804 30.3636 82.5426 30.4312 82.9048 30.4988C83.1463 30.5439 83.3736 30.604 83.608 30.6415C84.2188 30.7242 84.8366 30.7692 85.4546 30.7692C93.473 30.7692 100 23.8657 100 15.3846C100 6.90355 93.473 0 85.4546 0ZM85.4546 3.84615C91.4702 3.84615 96.3636 9.02193 96.3636 15.3846C96.3636 21.7473 91.4702 26.9231 85.4546 26.9231C84.9432 26.9231 84.4389 26.8705 83.9418 26.8029C83.7784 26.7728 83.6151 26.7353 83.4517 26.7052C83.1108 26.6376 82.7699 26.555 82.4361 26.4498C82.2656 26.3972 82.1023 26.3447 81.9389 26.2921C81.527 26.1418 81.1151 25.969 80.7173 25.7587C80.6676 25.7362 80.6108 25.7136 80.5611 25.6911C80.0852 25.4357 79.6307 25.1352 79.1832 24.8122C78.2031 24.076 77.3224 23.1821 76.598 22.1229C76.0156 21.2665 74.8793 21.0712 74.0625 21.6947C73.2457 22.3107 73.0611 23.5126 73.6506 24.3765C74.0412 24.9549 74.4815 25.4808 74.9432 25.9916L39.0625 47.1755C38.4375 47.5361 38.0753 48.2572 38.1321 49.0084C38.1605 49.3389 38.1818 49.6695 38.1818 50C38.1818 50.3305 38.1605 50.6611 38.1321 50.9916C38.0753 51.7428 38.4375 52.4564 39.0625 52.8245L77.1946 75.338C77.8125 75.6986 78.5653 75.6611 79.1406 75.2254C80.9943 73.8206 83.1818 73.0769 85.4546 73.0769C91.4702 73.0769 96.3636 78.2527 96.3636 84.6154C96.3636 90.9781 91.4702 96.1538 85.4546 96.1538C81.4489 96.1538 77.9474 93.8477 76.0511 90.4297C75.8807 90.1367 75.7315 89.8287 75.5966 89.5207C75.5398 89.4081 75.483 89.2954 75.4332 89.1827C75.2628 88.7545 75.1207 88.3263 75 87.8906C74.9645 87.7704 74.9432 87.6502 74.9148 87.53C74.8224 87.177 74.7514 86.8089 74.6946 86.4483C74.6733 86.3206 74.6591 86.1854 74.6378 86.0577C74.5881 85.5769 74.5455 85.1037 74.5455 84.6154C74.5455 84.2173 74.5668 83.8266 74.6023 83.4435V83.436C74.7088 82.2942 74.9787 81.1899 75.3977 80.1307C75.7955 79.1541 75.3551 78.0198 74.4318 77.6067C73.5085 77.1935 72.4432 77.6517 72.0526 78.6358C71.8395 79.1692 71.6548 79.7251 71.5057 80.2885L35.696 59.1496C35.419 58.9844 35.1136 58.9017 34.8082 58.9017C34.4318 58.9017 34.0554 59.0295 33.7287 59.2849C31.8395 60.7572 29.6023 61.5385 27.2727 61.5385C21.2571 61.5385 16.3636 56.3627 16.3636 50C16.3636 43.6373 21.2571 38.4615 27.2727 38.4615C29.6023 38.4615 31.8395 39.2428 33.7287 40.7151C34.3111 41.1659 35.071 41.2185 35.696 40.8428L73.679 18.427C74.3111 18.0514 74.6733 17.3227 74.6023 16.5565C74.5668 16.1734 74.5455 15.7828 74.5455 15.3846C74.5455 9.02193 79.4389 3.84615 85.4546 3.84615ZM27.2727 21.1538C26.2642 21.1538 25.4545 22.0177 25.4545 23.0769V26.9231C25.4545 27.9823 26.2642 28.8462 27.2727 28.8462C28.2813 28.8462 29.0909 27.9823 29.0909 26.9231V23.0769C29.0909 22.0177 28.2813 21.1538 27.2727 21.1538ZM14.3182 24.7746C14.0838 24.8047 13.8494 24.8873 13.6364 25.0225C12.7628 25.5484 12.4716 26.7278 12.9688 27.6442L14.7869 30.9796C15.1278 31.5956 15.7386 31.9411 16.3636 31.9411C16.6761 31.9411 16.9886 31.8585 17.2727 31.6782C18.1463 31.1523 18.4375 29.973 17.9332 29.0565L16.1222 25.7212C15.7386 25.0376 15.0213 24.6845 14.3182 24.7746ZM5.45455 34.6304C4.75142 34.5403 4.02699 34.8858 3.65057 35.5769C3.15341 36.4934 3.45171 37.6728 4.31818 38.1986L7.47159 40.1217C7.75568 40.302 8.06818 40.3846 8.37358 40.3846C9.00568 40.3846 9.61648 40.0391 9.95028 39.4231C10.4545 38.5066 10.1563 37.3272 9.28977 36.8014L6.13636 34.8783C5.9233 34.7431 5.68892 34.6605 5.45455 34.6304ZM1.81818 48.0769C0.80966 48.0769 0 48.9408 0 50C0 51.0592 0.80966 51.9231 1.81818 51.9231H5.45455C6.46307 51.9231 7.27273 51.0592 7.27273 50C7.27273 48.9408 6.46307 48.0769 5.45455 48.0769H1.81818ZM8.15341 59.6304C7.91903 59.6605 7.68466 59.7431 7.47159 59.8783L4.31818 61.8014C3.45171 62.3272 3.15341 63.5066 3.65057 64.4231C3.99148 65.0391 4.60227 65.3846 5.22727 65.3846C5.53977 65.3846 5.85227 65.302 6.13636 65.1217L9.28977 63.1986C10.1563 62.6728 10.4545 61.4934 9.95739 60.5769C9.57386 59.8858 8.84943 59.5403 8.15341 59.6304ZM16.5909 68.0814C15.8807 67.9838 15.1634 68.3368 14.7869 69.0204L12.9688 72.3558C12.4716 73.2722 12.7699 74.4516 13.6364 74.9775C13.9205 75.1578 14.233 75.2404 14.5455 75.2404C15.1705 75.2404 15.7813 74.8948 16.1222 74.2788L17.9332 70.9435C18.4375 70.027 18.1463 68.8477 17.2727 68.3218C17.0526 68.1866 16.8182 68.1115 16.5909 68.0814ZM27.2727 71.1539C26.2642 71.1539 25.4545 72.0177 25.4545 73.0769V76.9231C25.4545 77.9823 26.2642 78.8462 27.2727 78.8462C28.2813 78.8462 29.0909 77.9823 29.0909 76.9231V73.0769C29.0909 72.0177 28.2813 71.1539 27.2727 71.1539Z" fill="#696FFF"/>
<path d="M82.6986 80.8269C82.8613 80.3386 82.6986 79.8503 82.2103 79.6062C81.722 79.362 81.1523 79.6062 80.9896 80.0131C80.7454 80.42 80.9082 80.9083 81.3151 81.1524H82.3731C82.5358 81.071 82.6172 80.9896 82.6986 80.8269Z" fill="#696FFF"/>
<path d="M79.0365 81.1524H79.362L79.2806 80.8269L80.42 78.2227L81.071 77.9786C81.1524 77.9786 81.1524 78.0599 81.2338 78.0599C81.722 78.3041 82.2917 78.0599 82.4545 77.653C82.4545 77.5717 82.4545 77.5717 82.4545 77.4903L83.1055 77.3275L90.7552 80.6641L90.918 81.1524H92.0573C92.7084 81.1524 93.278 81.3965 93.6849 81.8034C93.6849 81.2338 93.3594 80.6641 92.7898 80.42L81.8848 75.6185C81.1524 75.293 80.2572 75.6185 79.9317 76.351L77.5717 81.6407C77.9786 81.3152 78.4668 81.1524 79.0365 81.1524Z" fill="#696FFF"/>
<path d="M86.4421 80.1758C85.3027 79.6876 84.082 80.1758 83.5938 81.1524H87.5C87.2559 80.7455 86.9303 80.42 86.4421 80.1758Z" fill="#696FFF"/>
<path d="M77.4088 83.5938V90.1042C77.4088 90.9994 78.1412 91.7318 79.0364 91.7318H92.0573C92.9524 91.7318 93.6849 90.9994 93.6849 90.1042V83.5938C93.6849 82.6986 92.9524 81.9662 92.0573 81.9662H79.0364C78.1412 81.9662 77.4088 82.6986 77.4088 83.5938ZM92.3828 88.3952L91.8131 88.8835C91.7317 88.8835 91.6504 88.8835 91.6504 88.8835C91.0807 88.8835 90.5924 89.2904 90.5924 89.8601C90.5924 89.9415 90.5924 90.0228 90.5924 90.0228L90.0227 90.5111H80.9895L80.4199 90.0228C80.4199 89.9415 80.4199 89.9415 80.4199 89.8601C80.4199 89.2904 79.9316 88.8835 79.3619 88.8835C79.2806 88.8835 79.1992 88.8835 79.1992 88.8835L78.6295 88.3952V85.2214L79.1992 84.7331C79.2806 84.7331 79.3619 84.7331 79.3619 84.7331C79.9316 84.7331 80.4199 84.3262 80.4199 83.7566C80.4199 83.6752 80.4199 83.5938 80.4199 83.5938L80.9895 83.1055H90.1041L90.6738 83.5938C90.6738 83.6752 90.6738 83.6752 90.6738 83.7566C90.6738 84.3262 91.1621 84.7331 91.7317 84.7331C91.8131 84.7331 91.8945 84.7331 91.8945 84.7331L92.4642 85.2214V88.3952H92.3828ZM91.0807 86.849C91.0807 87.4187 90.5924 87.8256 90.0227 87.8256C89.4531 87.8256 88.9648 87.4187 88.9648 86.849C88.9648 86.2794 89.4531 85.8724 90.0227 85.8724C90.5924 85.8724 91.0807 86.2794 91.0807 86.849ZM88.0696 86.849C88.0696 88.0697 87.0117 89.1277 85.6282 89.1277C84.2448 89.1277 83.1868 88.1511 83.1868 86.849C83.1868 85.5469 84.2448 84.5704 85.6282 84.5704C87.0117 84.5704 88.0696 85.6283 88.0696 86.849ZM82.1289 86.849C82.1289 87.4187 81.6406 87.8256 81.0709 87.8256C80.5013 87.8256 80.013 87.4187 80.013 86.849C80.013 86.2794 80.5013 85.8724 81.0709 85.8724C81.6406 85.8724 82.1289 86.2794 82.1289 86.849Z" fill="#696FFF"/>
<path d="M25.6673 47.233C25.8301 46.7448 25.6673 46.2565 25.179 46.0123C24.6908 45.7682 24.1211 46.0123 23.9583 46.4192C23.7142 46.8261 23.877 47.3144 24.2839 47.5586H25.3418C25.5046 47.4772 25.5859 47.3958 25.6673 47.233Z" fill="#696FFF"/>
<path d="M22.0052 47.5586H22.3308L22.2494 47.233L23.3887 44.6289L24.0398 44.3847C24.1211 44.3847 24.1211 44.4661 24.2025 44.4661C24.6908 44.7103 25.2605 44.4661 25.4232 44.0592C25.4232 43.9778 25.4232 43.9778 25.4232 43.8965L26.0743 43.7337L33.724 47.0703L33.8868 47.5586H35.0261C35.6771 47.5586 36.2468 47.8027 36.6537 48.2096C36.6537 47.6399 36.3282 47.0703 35.7585 46.8261L24.8536 42.0247C24.1211 41.6992 23.226 42.0247 22.9004 42.7571L20.5404 48.0469C20.9473 47.7213 21.4356 47.5586 22.0052 47.5586Z" fill="#696FFF"/>
<path d="M29.4108 46.582C28.2715 46.0937 27.0508 46.582 26.5625 47.5586H30.4687C30.2246 47.1517 29.8991 46.8261 29.4108 46.582Z" fill="#696FFF"/>
<path d="M20.3776 50V56.5104C20.3776 57.4056 21.11 58.138 22.0052 58.138H35.026C35.9212 58.138 36.6536 57.4056 36.6536 56.5104V50C36.6536 49.1048 35.9212 48.3724 35.026 48.3724H22.0052C21.11 48.3724 20.3776 49.1048 20.3776 50ZM35.3515 54.8014L34.7819 55.2897C34.7005 55.2897 34.6191 55.2897 34.6191 55.2897C34.0494 55.2897 33.5612 55.6966 33.5612 56.2662C33.5612 56.3476 33.5612 56.429 33.5612 56.429L32.9915 56.9173H23.9583L23.3886 56.429C23.3886 56.3476 23.3886 56.3476 23.3886 56.2662C23.3886 55.6966 22.9004 55.2897 22.3307 55.2897C22.2493 55.2897 22.1679 55.2897 22.1679 55.2897L21.5983 54.8014V51.6276L22.1679 51.1393C22.2493 51.1393 22.3307 51.1393 22.3307 51.1393C22.9004 51.1393 23.3886 50.7324 23.3886 50.1627C23.3886 50.0814 23.3886 50 23.3886 50L23.9583 49.5117H33.0729L33.6425 50C33.6425 50.0814 33.6425 50.0814 33.6425 50.1627C33.6425 50.7324 34.1308 51.1393 34.7005 51.1393C34.7819 51.1393 34.8632 51.1393 34.8632 51.1393L35.4329 51.6276V54.8014H35.3515ZM34.0494 53.2552C34.0494 53.8248 33.5612 54.2317 32.9915 54.2317C32.4218 54.2317 31.9336 53.8248 31.9336 53.2552C31.9336 52.6855 32.4218 52.2786 32.9915 52.2786C33.5612 52.2786 34.0494 52.6855 34.0494 53.2552ZM31.0384 53.2552C31.0384 54.4759 29.9804 55.5338 28.597 55.5338C27.2135 55.5338 26.1556 54.5573 26.1556 53.2552C26.1556 51.9531 27.2135 50.9765 28.597 50.9765C29.9804 50.9765 31.0384 52.0345 31.0384 53.2552ZM25.0976 53.2552C25.0976 53.8248 24.6093 54.2317 24.0397 54.2317C23.47 54.2317 22.9817 53.8248 22.9817 53.2552C22.9817 52.6855 23.47 52.2786 24.0397 52.2786C24.6093 52.2786 25.0976 52.6855 25.0976 53.2552Z" fill="#696FFF"/>
<path d="M82.6986 11.2955C82.8613 10.8073 82.6986 10.319 82.2103 10.0748C81.722 9.8307 81.1523 10.0748 80.9896 10.4817C80.7454 10.8886 80.9082 11.3769 81.3151 11.6211H82.3731C82.5358 11.5397 82.6172 11.4583 82.6986 11.2955Z" fill="#696FFF"/>
<path d="M79.0365 11.6211H79.362L79.2806 11.2955L80.42 8.69138L81.071 8.44724C81.1524 8.44724 81.1524 8.52862 81.2338 8.52862C81.722 8.77276 82.2917 8.52862 82.4545 8.12172C82.4545 8.04034 82.4545 8.04034 82.4545 7.95896L83.1055 7.7962L90.7552 11.1328L90.918 11.6211H92.0573C92.7084 11.6211 93.278 11.8652 93.6849 12.2721C93.6849 11.7024 93.3594 11.1328 92.7898 10.8886L81.8848 6.08721C81.1524 5.76169 80.2572 6.08721 79.9317 6.81963L77.5717 12.1093C77.9786 11.7838 78.4668 11.6211 79.0365 11.6211Z" fill="#696FFF"/>
<path d="M86.4421 10.6445C85.3027 10.1562 84.082 10.6445 83.5938 11.6211H87.5C87.2559 11.2142 86.9303 10.8886 86.4421 10.6445Z" fill="#696FFF"/>
<path d="M77.4088 14.0625V20.5729C77.4088 21.4681 78.1412 22.2005 79.0364 22.2005H92.0573C92.9524 22.2005 93.6849 21.4681 93.6849 20.5729V14.0625C93.6849 13.1673 92.9524 12.4349 92.0573 12.4349H79.0364C78.1412 12.4349 77.4088 13.1673 77.4088 14.0625ZM92.3828 18.8639L91.8131 19.3522C91.7317 19.3522 91.6504 19.3522 91.6504 19.3522C91.0807 19.3522 90.5924 19.7591 90.5924 20.3287C90.5924 20.4101 90.5924 20.4915 90.5924 20.4915L90.0227 20.9798H80.9895L80.4199 20.4915C80.4199 20.4101 80.4199 20.4101 80.4199 20.3287C80.4199 19.7591 79.9316 19.3522 79.3619 19.3522C79.2806 19.3522 79.1992 19.3522 79.1992 19.3522L78.6295 18.8639V15.6901L79.1992 15.2018C79.2806 15.2018 79.3619 15.2018 79.3619 15.2018C79.9316 15.2018 80.4199 14.7949 80.4199 14.2252C80.4199 14.1439 80.4199 14.0625 80.4199 14.0625L80.9895 13.5742H90.1041L90.6738 14.0625C90.6738 14.1439 90.6738 14.1439 90.6738 14.2252C90.6738 14.7949 91.1621 15.2018 91.7317 15.2018C91.8131 15.2018 91.8945 15.2018 91.8945 15.2018L92.4642 15.6901V18.8639H92.3828ZM91.0807 17.3177C91.0807 17.8873 90.5924 18.2942 90.0227 18.2942C89.4531 18.2942 88.9648 17.8873 88.9648 17.3177C88.9648 16.748 89.4531 16.3411 90.0227 16.3411C90.5924 16.3411 91.0807 16.748 91.0807 17.3177ZM88.0696 17.3177C88.0696 18.5384 87.0117 19.5963 85.6282 19.5963C84.2448 19.5963 83.1868 18.6198 83.1868 17.3177C83.1868 16.0156 84.2448 15.039 85.6282 15.039C87.0117 15.039 88.0696 16.097 88.0696 17.3177ZM82.1289 17.3177C82.1289 17.8873 81.6406 18.2942 81.0709 18.2942C80.5013 18.2942 80.013 17.8873 80.013 17.3177C80.013 16.748 80.5013 16.3411 81.0709 16.3411C81.6406 16.3411 82.1289 16.748 82.1289 17.3177Z" fill="#696FFF"/>
</svg>
